<svg xmlns="http://www.w3.org/2000/svg" width="1200" height="675" viewBox="0 0 1200 675" role="img" aria-labelledby="title desc"><title id="title">Aluminium 6061, 6063 and 7075: Buyer Comparison Guide</title><desc id="desc">Rubinox knowledge hub visual for Aluminium buyer guidance.</desc><defs><linearGradient id="g" x1="0" y1="0" x2="1" y2="1"><stop offset="0" stop-color="#07101f"/><stop offset=".58" stop-color="#132a63"/><stop offset="1" stop-color="#d9dee7"/></linearGradient><linearGradient id="gold" x1="0" y1="0" x2="1" y2="1"><stop offset="0" stop-color="#f7c65b"/><stop offset="1" stop-color="#e2a02f"/></linearGradient><pattern id="grid" width="54" height="54" patternUnits="userSpaceOnUse"><path d="M54 0H0v54" fill="none" stroke="rgba(255,255,255,.08)" stroke-width="1"/></pattern></defs><rect width="1200" height="675" fill="url(#g)"/><rect width="1200" height="675" fill="url(#grid)"/><circle cx="1010" cy="80" r="210" fill="rgba(247,198,91,.16)"/><circle cx="150" cy="570" r="220" fill="rgba(255,255,255,.10)"/><path d="M105 430h990" stroke="rgba(255,255,255,.24)" stroke-width="2"/><path d="M185 480h830" stroke="rgba(247,198,91,.48)" stroke-width="5" stroke-linecap="round"/><g transform="translate(96 92)"><rect width="1008" height="491" rx="34" fill="rgba(255,255,255,.10)" stroke="rgba(247,198,91,.28)"/><rect x="44" y="42" width="250" height="40" rx="20" fill="url(#gold)"/><text x="68" y="69" font-family="Arial,Helvetica,sans-serif" font-size="20" font-weight="800" fill="#07101f">Aluminium</text><text x="44" y="164" font-family="Arial,Helvetica,sans-serif" font-size="46" font-weight="900" fill="#ffffff">Rubinox Knowledge Hub</text><text x="44" y="234" font-family="Arial,Helvetica,sans-serif" font-size="31" font-weight="800" fill="#f8fafc">Aluminium 6061, 6063 and 7075: Buyer Comparison Guide</text><text x="44" y="306" font-family="Arial,Helvetica,sans-serif" font-size="21" fill="#d7deec">Buyer-focused material, RFQ and documentation guidance.</text><g transform="translate(44 370)"><rect width="220" height="64" rx="14" fill="rgba(255,255,255,.12)" stroke="rgba(255,255,255,.20)"/><rect x="20" y="18" width="28" height="28" rx="8" fill="url(#gold)"/><text x="64" y="39" font-family="Arial,Helvetica,sans-serif" font-size="18" font-weight="800" fill="#ffffff">Supplier Guidance</text></g><g transform="translate(286 370)"><rect width="250" height="64" rx="14" fill="rgba(255,255,255,.12)" stroke="rgba(255,255,255,.20)"/><rect x="20" y="18" width="28" height="28" rx="8" fill="url(#gold)"/><text x="64" y="39" font-family="Arial,Helvetica,sans-serif" font-size="18" font-weight="800" fill="#ffffff">Procurement Notes</text></g></g></svg>